<svg xmlns="http://www.w3.org/2000/svg" width="42" height="42" viewBox="0 0 42 42" fill="none"><g clip-path="url(#clip0_539_1503)"><path d="M2.80078 25.1992H4.20078V34.9992H2.80078V25.1992Z" fill="#D31F0D"></path><path d="M5.59961 25.1992H6.99961V34.9992H5.59961V25.1992Z" fill="#D31F0D"></path><path d="M8.40039 25.1992H9.80039V34.9992H8.40039V25.1992Z" fill="#D31F0D"></path><path d="M11.1992 25.1992H12.5992V34.9992H11.1992V25.1992Z" fill="#D31F0D"></path><path d="M29.4004 25.1992H30.8004V34.9992H29.4004V25.1992Z" fill="#D31F0D"></path><path d="M32.1992 25.1992H33.5992V34.9992H32.1992V25.1992Z" fill="#D31F0D"></path><path d="M35 25.1992H36.4V34.9992H35V25.1992Z" fill="#D31F0D"></path><path d="M37.8008 25.1992H39.2008V34.9992H37.8008V25.1992Z" fill="#D31F0D"></path><path d="M41.3 20.3H39.2V18.2C39.2 17.8134 38.8866 17.5 38.5 17.5H36.4V16.8H37.1C37.4866 16.8 37.8 16.4866 37.8 16.1V13.3C37.8 12.9134 37.4866 12.6 37.1 12.6H36.4V11.9H37.1C37.4866 11.9 37.8 11.5866 37.8 11.2V8.4C37.8 8.01343 37.4866 7.7 37.1 7.7H36.4V7H37.1C37.4866 7 37.8 6.68657 37.8 6.3V3.5C37.8 3.11343 37.4866 2.8 37.1 2.8H35.7V2.1C35.7 0.940283 34.7597 0 33.6 0C32.4403 0 31.5 0.940283 31.5 2.1V2.8H30.1C29.7134 2.8 29.4 3.11343 29.4 3.5V6.3C29.4 6.68657 29.7134 7 30.1 7H30.8V7.7H30.1C29.7134 7.7 29.4 8.01343 29.4 8.4V11.2C29.4 11.5866 29.7134 11.9 30.1 11.9H30.8V12.6H30.1C29.7134 12.6 29.4 12.9134 29.4 13.3V16.1C29.4 16.4866 29.7134 16.8 30.1 16.8H30.8V17.5H23.8V16.8H24.5C24.8866 16.8 25.2 16.4866 25.2 16.1V13.3C25.2 12.9134 24.8866 12.6 24.5 12.6H23.8V11.9H24.5C24.8866 11.9 25.2 11.5866 25.2 11.2V8.4C25.2 8.01343 24.8866 7.7 24.5 7.7H23.8V7H24.5C24.8866 7 25.2 6.68657 25.2 6.3V3.5C25.2 3.11343 24.8866 2.8 24.5 2.8H23.1V2.1C23.1 0.940283 22.1597 0 21 0C19.8403 0 18.9 0.940283 18.9 2.1V2.8H17.5C17.1134 2.8 16.8 3.11343 16.8 3.5V6.3C16.8 6.68657 17.1134 7 17.5 7H18.2V7.7H17.5C17.1134 7.7 16.8 8.01343 16.8 8.4V11.2C16.8 11.5866 17.1134 11.9 17.5 11.9H18.2V12.6H17.5C17.1134 12.6 16.8 12.9134 16.8 13.3V16.1C16.8 16.4866 17.1134 16.8 17.5 16.8H18.2V17.5H11.2V16.8H11.9C12.2866 16.8 12.6 16.4866 12.6 16.1V13.3C12.6 12.9134 12.2866 12.6 11.9 12.6H11.2V11.9H11.9C12.2866 11.9 12.6 11.5866 12.6 11.2V8.4C12.6 8.01343 12.2866 7.7 11.9 7.7H11.2V7H11.9C12.2866 7 12.6 6.68657 12.6 6.3V3.5C12.6 3.11343 12.2866 2.8 11.9 2.8H10.5V2.1C10.5 0.940283 9.55972 0 8.4 0C7.24028 0 6.3 0.940283 6.3 2.1V2.8H4.9C4.51343 2.8 4.2 3.11343 4.2 3.5V6.3C4.2 6.68657 4.51343 7 4.9 7H5.6V7.7H4.9C4.51343 7.7 4.2 8.01343 4.2 8.4V11.2C4.2 11.5866 4.51343 11.9 4.9 11.9H5.6V12.6H4.9C4.51343 12.6 4.2 12.9134 4.2 13.3V16.1C4.2 16.4866 4.51343 16.8 4.9 16.8H5.6V17.5H3.5C3.11343 17.5 2.8 17.8134 2.8 18.2V20.3H0.7C0.313428 20.3 0 20.6134 0 21V39.2C0 39.5866 0.313428 39.9 0.7 39.9H2.1V41.3C2.1 41.6866 2.41343 42 2.8 42H39.2C39.5866 42 39.9 41.6866 39.9 41.3V39.9H41.3C41.6866 39.9 42 39.5866 42 39.2V21C42 20.6134 41.6866 20.3 41.3 20.3ZM32.9 2.1C32.9 1.71343 33.2134 1.4 33.6 1.4C33.9866 1.4 34.3 1.71343 34.3 2.1V2.8H32.9V2.1ZM30.8 4.2H36.4V5.6H30.8V4.2ZM32.2 7H35V7.7H32.2V7ZM30.8 9.1H36.4V10.5H30.8V9.1ZM32.2 11.9H35V12.6H32.2V11.9ZM30.8 14H36.4V15.4H30.8V14ZM32.2 16.8H35V17.5H32.2V16.8ZM20.3 2.1C20.3 1.71343 20.6134 1.4 21 1.4C21.3866 1.4 21.7 1.71343 21.7 2.1V2.8H20.3V2.1ZM18.2 4.2H23.8V5.6H18.2V4.2ZM19.6 7H22.4V7.7H19.6V7ZM18.2 9.1H23.8V10.5H18.2V9.1ZM19.6 11.9H22.4V12.6H19.6V11.9ZM18.2 14H23.8V15.4H18.2V14ZM19.6 16.8H22.4V17.5H19.6V16.8ZM7.7 2.1C7.7 1.71343 8.01343 1.4 8.4 1.4C8.78657 1.4 9.1 1.71343 9.1 2.1V2.8H7.7V2.1ZM5.6 4.2H11.2V5.6H5.6V4.2ZM7 7H9.8V7.7H7V7ZM5.6 9.1H11.2V10.5H5.6V9.1ZM7 11.9H9.8V12.6H7V11.9ZM5.6 14H11.2V15.4H5.6V14ZM7 16.8H9.8V17.5H7V16.8ZM4.2 18.9H37.8V20.3H4.2V18.9ZM38.5 40.6H3.5V39.9H38.5V40.6ZM40.6 38.5H1.4V21.7H40.6V38.5Z" fill="#D31F0D"></path><path d="M21 23.1016C17.1339 23.1016 14 26.2355 14 30.1016C14 33.9676 17.1339 37.1016 21 37.1016C24.8661 37.1016 28 33.9676 28 30.1016C27.9959 26.2372 24.8644 23.1057 21 23.1016ZM21 35.7016C17.9071 35.7016 15.4 33.1945 15.4 30.1016C15.4 27.0086 17.9071 24.5016 21 24.5016C24.0929 24.5016 26.6 27.0086 26.6 30.1016C26.5966 33.1928 24.0912 35.6981 21 35.7016Z" fill="#D31F0D"></path></g><defs><clipPath id="clip0_539_1503"><rect width="42" height="42" fill="white"></rect></clipPath></defs></svg>